HIERARCHY
ROOT Hips
{
	OFFSET -0.001795 -0.223333 0.028219
	CHANNELS 6 Xposition Yposition Zposition Zrotation Yrotation Xrotation 
	JOINT LeftUpLeg
	{
		OFFSET 0.069520 -0.091406 -0.006815
		CHANNELS 3 Zrotation Yrotation Xrotation
		JOINT LeftLeg
		{
			OFFSET 0.034277 -0.375199 -0.004496
			CHANNELS 3 Zrotation Yrotation Xrotation
			JOINT LeftFoot
			{
				OFFSET -0.013596 -0.397961 -0.043693
				CHANNELS 3 Zrotation Yrotation Xrotation
				JOINT LeftToe
				{
					OFFSET 0.026358 -0.055791 0.119288
					CHANNELS 3 Zrotation Yrotation Xrotation
					End Site
					{
						OFFSET 0.000000 0.000000 0.000000
					}
				}
			}
		}
	}
	JOINT RightUpLeg
	{
		OFFSET -0.067670 -0.090522 -0.004320
		CHANNELS 3 Zrotation Yrotation Xrotation
		JOINT RightLeg
		{
			OFFSET -0.038290 -0.382569 -0.008850
			CHANNELS 3 Zrotation Yrotation Xrotation
			JOINT RightFoot
			{
				OFFSET 0.015774 -0.398415 -0.042312
				CHANNELS 3 Zrotation Yrotation Xrotation
				JOINT RightToe
				{
					OFFSET -0.025372 -0.048144 0.123348
					CHANNELS 3 Zrotation Yrotation Xrotation
					End Site
					{
						OFFSET 0.000000 0.000000 0.000000
					}
				}
			}
		}
	}
	JOINT Spine
	{
		OFFSET -0.002533 0.108963 -0.026696
		CHANNELS 3 Zrotation Yrotation Xrotation
		JOINT Spine1
		{
			OFFSET 0.005487 0.135180 0.001092
			CHANNELS 3 Zrotation Yrotation Xrotation
			JOINT Spine2
			{
				OFFSET 0.001457 0.052922 0.025425
				CHANNELS 3 Zrotation Yrotation Xrotation
				JOINT Neck
				{
					OFFSET -0.002778 0.213870 -0.042857
					CHANNELS 3 Zrotation Yrotation Xrotation
					JOINT Head
					{
						OFFSET 0.005152 0.064970 0.051349
						CHANNELS 3 Zrotation Yrotation Xrotation
						End Site
						{
							OFFSET 0.000000 0.000000 0.000000
						}
					}
				}
				JOINT LeftShoulder
				{
					OFFSET 0.078845 0.121749 -0.034090
					CHANNELS 3 Zrotation Yrotation Xrotation
					JOINT LeftArm
					{
						OFFSET 0.090977 0.030469 -0.008868
						CHANNELS 3 Zrotation Yrotation Xrotation
						JOINT LeftForeArm
						{
							OFFSET 0.259612 -0.012772 -0.027456
							CHANNELS 3 Zrotation Yrotation Xrotation
							JOINT LeftHand
							{
								OFFSET 0.249234 0.008986 -0.001171
								CHANNELS 3 Zrotation Yrotation Xrotation
								End Site
								{
									OFFSET 0.000000 0.000000 0.000000
								}
							}
						}
					}
				}
				JOINT RightShoulder
				{
					OFFSET -0.081759 0.118833 -0.038615
					CHANNELS 3 Zrotation Yrotation Xrotation
					JOINT RightArm
					{
						OFFSET -0.096012 0.032551 -0.009143
						CHANNELS 3 Zrotation Yrotation Xrotation
						JOINT RightForeArm
						{
							OFFSET -0.253742 -0.013329 -0.021401
							CHANNELS 3 Zrotation Yrotation Xrotation
							JOINT RightHand
							{
								OFFSET -0.255298 0.007772 -0.005559
								CHANNELS 3 Zrotation Yrotation Xrotation
								End Site
								{
									OFFSET 0.000000 0.000000 0.000000
								}
							}
						}
					}
				}
			}
		}
	}
}
MOTION
Frames: 10
Frame Time: 0.050000
0.000000 0.900563 0.000000 -0.911729 -22.408989 3.064349 15.000124 2.428654 -18.922481 -6.963042 2.059928 12.350856 11.288156 20.259512 12.794983 0.000000 0.000000 0.000000 -11.743270 1.162473 0.298565 3.722955 0.376876 14.108063 -6.454645 -13.460328 -1.762860 0.000000 0.000000 0.000000 2.938323 -0.394288 5.842492 -3.612121 1.057940 -24.296774 0.126089 11.239668 27.567894 2.470666 -0.496482 -22.716536 0.000000 0.000000 0.000000 -3.740351 -9.987088 3.962822 -45.823829 -32.613358 5.116870 114.506831 -58.154882 -71.113332 0.000000 0.000000 0.000000 4.061257 9.701163 3.279387 61.055035 38.437127 12.052885 -179.217793 60.396210 -168.515359 0.000000 0.000000 0.000000 
-0.000012 0.899497 -0.000968 -0.377085 -22.369564 2.756757 15.463151 2.671831 -19.916325 -6.661671 2.144765 14.195190 7.619020 14.467233 12.112017 0.000000 0.000000 0.000000 -12.819472 1.326421 1.019467 5.251936 0.068824 13.374704 -6.914308 -13.106180 -4.804656 0.000000 0.000000 0.000000 3.347941 -0.369395 4.953907 -4.794550 1.363667 -24.339828 -0.900387 11.044335 28.283381 2.283812 -0.358475 -23.524749 0.000000 0.000000 0.000000 -1.468878 -10.675905 3.987631 -48.115304 -31.387202 5.099044 121.049117 -54.258818 -72.605217 0.000000 0.000000 0.000000 4.289015 9.650152 3.250401 64.783051 41.560174 15.148489 179.007286 63.487505 -171.628400 0.000000 0.000000 0.000000 
0.000449 0.902143 -0.001759 -1.069114 -20.185396 3.517048 16.125710 2.589167 -19.818610 -7.605909 2.312994 14.121327 6.565617 13.071849 10.486995 0.000000 0.000000 0.000000 -11.071200 1.035144 1.372815 4.523646 0.066317 12.148029 -6.891067 -13.407217 -4.726092 0.000000 0.000000 0.000000 3.346825 -0.387641 5.072302 -5.398242 1.558111 -24.754175 -0.407069 11.345148 28.865838 3.393395 -0.711532 -24.142536 0.000000 0.000000 0.000000 -2.232374 -11.146542 4.179505 -49.566974 -33.109171 5.859984 122.908865 -54.186613 -75.030486 0.000000 0.000000 0.000000 4.081618 8.567324 2.976371 64.344123 43.525284 16.623178 -177.136351 65.006298 -164.382695 0.000000 0.000000 0.000000 
0.001614 0.898961 -0.001997 -1.666615 -17.780689 4.268460 17.808383 3.074869 -22.064796 -10.224579 3.009487 14.559770 8.205581 15.862204 12.888903 0.000000 0.000000 0.000000 -9.977774 0.840696 1.629154 4.016030 0.035977 10.964736 -7.228896 -14.783973 -4.213998 0.000000 0.000000 0.000000 2.738838 -0.385351 5.467830 -5.293678 1.582179 -26.239482 0.125279 11.926411 29.336557 2.754071 -0.101787 -22.470066 0.000000 0.000000 0.000000 -3.484509 -10.726984 4.015474 -50.632052 -33.190757 5.755859 131.066455 -55.688000 -87.350861 0.000000 0.000000 0.000000 5.787724 8.026337 2.993882 62.239532 43.818657 16.329897 -173.989699 65.400349 -158.020577 0.000000 0.000000 0.000000 
0.004384 0.896590 -0.001045 -1.436529 -14.031619 4.746011 17.969348 3.082938 -25.194008 -12.087433 3.713301 17.582394 8.181945 16.257152 12.135013 0.000000 0.000000 0.000000 -9.957475 0.742525 2.629217 4.275833 -0.151951 8.951642 -7.652091 -16.483751 -3.807641 0.000000 0.000000 0.000000 1.737828 -0.358054 6.156952 -4.984649 1.562691 -26.303323 0.762017 12.356143 29.293184 1.421675 1.160529 -21.694939 0.000000 0.000000 0.000000 -4.626860 -9.722808 3.467185 -52.004368 -33.671919 5.945522 138.910534 -57.471809 -101.307250 0.000000 0.000000 0.000000 4.709106 7.817316 3.090713 61.616719 45.261656 17.652754 -166.719134 65.601859 -144.901628 0.000000 0.000000 0.000000 
0.009292 0.890177 0.002315 -1.332143 -10.922212 6.103577 18.473329 3.529276 -30.804560 -13.119231 4.475900 22.767714 7.435830 15.401202 10.875720 0.000000 0.000000 0.000000 -10.550921 0.748328 3.939097 3.970333 -0.201949 7.453071 -8.170004 -18.169259 -3.934991 0.000000 0.000000 0.000000 1.821159 -0.370718 5.979414 -5.495046 1.714576 -26.295284 1.904729 13.282819 28.598114 2.617757 1.052287 -23.870933 0.000000 0.000000 0.000000 -4.964112 -8.239072 2.612330 -52.892904 -32.383469 5.341709 145.103095 -58.637327 -113.497828 0.000000 0.000000 0.000000 3.827038 7.446868 3.067744 60.773655 47.432255 19.505776 -156.190154 66.696454 -128.608648 0.000000 0.000000 0.000000 
0.018482 0.881695 0.011525 -0.813429 -8.118083 6.359400 17.802618 3.311418 -34.392491 -14.450440 5.332004 27.376948 8.479552 17.348909 9.636433 0.000000 0.000000 0.000000 -11.241185 0.750138 5.484802 3.858883 -0.236713 7.172222 -8.831304 -20.093334 -5.036554 0.000000 0.000000 0.000000 1.210147 -0.337648 6.201001 -6.001655 1.853490 -26.218333 3.607154 15.165054 28.419931 3.408052 1.388783 -26.116109 0.000000 0.000000 0.000000 -4.808731 -7.209485 1.873690 -53.813357 -30.332744 4.237320 153.601262 -59.299248 -129.715208 0.000000 0.000000 0.000000 3.050827 7.243850 3.093132 58.459332 48.271731 19.837644 -147.761138 62.505685 -110.402247 0.000000 0.000000 0.000000 
0.034817 0.874929 0.028729 0.158135 -3.658095 7.040477 15.488404 2.088405 -38.385246 -16.301116 5.972336 30.683786 10.475758 20.990951 9.949421 0.000000 0.000000 0.000000 -12.438597 0.740613 7.285676 5.499609 -0.565320 7.131441 -8.963771 -21.347044 -5.574680 0.000000 0.000000 0.000000 1.144973 -0.312803 5.587349 -6.950092 2.076825 -27.421613 5.553356 17.722467 28.880267 4.460055 1.757771 -27.114439 0.000000 0.000000 0.000000 -4.802055 -5.547832 0.714249 -53.180208 -25.952431 1.801431 168.543378 -61.058706 -159.596800 0.000000 0.000000 0.000000 0.860216 4.848725 1.965655 58.897962 47.615385 21.166235 -143.258487 60.842831 -98.974273 0.000000 0.000000 0.000000 
0.057355 0.875570 0.054102 -0.177543 0.372912 8.381236 13.021416 0.601365 -41.269431 -16.723981 5.776161 32.288820 10.988508 22.281947 8.789044 0.000000 0.000000 0.000000 -13.214803 0.676610 8.882530 6.458879 -0.814155 7.296880 -8.561751 -20.994195 -1.420415 0.000000 0.000000 0.000000 1.311525 -0.195091 2.825139 -6.174201 1.916993 -27.812781 6.964225 21.362706 29.412961 4.510411 2.452180 -24.309718 0.000000 0.000000 0.000000 -6.738636 -3.349438 -1.363796 -51.946738 -20.081508 -0.660177 -174.727786 -57.527822 166.487131 0.000000 0.000000 0.000000 0.121997 1.943569 0.751890 58.116451 44.747029 20.318240 -146.321111 59.250200 -96.734078 0.000000 0.000000 0.000000 
0.081240 0.883564 0.080739 0.282924 6.156485 8.812670 7.698321 -2.127174 -39.843276 -13.871330 3.731290 32.381904 9.681550 20.555044 4.160377 0.000000 0.000000 0.000000 -11.860617 0.234273 8.477368 6.371200 -1.151168 13.252834 -8.558954 -21.101493 4.116040 0.000000 0.000000 0.000000 0.881374 -0.113243 1.634086 -6.440405 1.903242 -29.316212 7.935108 21.138099 29.587876 5.077411 2.006519 -19.953686 0.000000 0.000000 0.000000 -9.258650 -1.019429 -3.731299 -49.775651 -14.417796 -2.378489 -165.341861 -52.621983 144.224541 0.000000 0.000000 0.000000 -1.700814 2.744172 0.626656 59.508295 41.242322 19.874062 -145.375427 58.236509 -91.940756 0.000000 0.000000 0.000000 
